<?xml version="1.0" standalone="no"?>
<!DOCTYPE svg PUBLIC "-//W3C//DTD SVG 20010904//EN"
 "http://www.w3.org/TR/2001/REC-SVG-20010904/DTD/svg10.dtd">
<svg version="1.0" xmlns="http://www.w3.org/2000/svg"
 width="512.000000pt" height="512.000000pt" viewBox="0 0 512.000000 512.000000"
 preserveAspectRatio="xMidYMid meet">
<metadata>
Created by potrace 1.11, written by Peter Selinger 2001-2013
</metadata>
<g transform="translate(0.000000,512.000000) scale(0.100000,-0.100000)"
fill="#000000" stroke="none">
<path d="M895 5113 c-422 -59 -761 -364 -868 -783 l-22 -85 0 -1685 0 -1685
22 -85 c98 -383 380 -665 763 -763 l85 -22 1685 0 1685 0 85 22 c383 98 665
380 763 763 l22 85 0 1685 0 1685 -22 85 c-97 380 -375 660 -758 763 l-80 22
-1665 1 c-916 1 -1678 -1 -1695 -3z m805 -1154 c62 -27 82 -56 292 -424 447
-784 584 -1015 601 -1015 15 0 3 -19 189 306 128 223 331 593 551 1004 65 123
70 129 100 140 47 16 164 12 203 -6 73 -35 94 -101 63 -201 -61 -195 -437
-843 -841 -1445 l-78 -117 0 -508 c0 -279 -4 -513 -8 -519 -13 -20 -85 -37
-162 -37 -60 -1 -86 4 -123 22 -84 41 -81 20 -87 566 l-5 480 -116 175 c-171
258 -512 803 -616 985 -22 39 -67 117 -100 175 -75 132 -153 285 -153 303 0 7
14 32 30 54 59 79 162 104 260 62z"/>
</g>
</svg>
